<?xml version="1.0" standalone="no"?>
<!DOCTYPE svg PUBLIC "-//W3C//DTD SVG 20010904//EN"
 "http://www.w3.org/TR/2001/REC-SVG-20010904/DTD/svg10.dtd">
<svg version="1.0" xmlns="http://www.w3.org/2000/svg"
 width="308.000000pt" height="308.000000pt" viewBox="0 0 308.000000 308.000000"
 preserveAspectRatio="xMidYMid meet">
<metadata>
Created by potrace 1.14, written by Peter Selinger 2001-2017
</metadata>
<g transform="translate(0.000000,308.000000) scale(0.100000,-0.100000)"
fill="#000000" stroke="none">
<path d="M2540 2566 c-226 -51 -378 -172 -440 -352 -29 -82 -33 -195 -11 -262
26 -77 85 -156 164 -220 38 -32 83 -69 101 -84 l31 -27 -63 -64 -63 -63 22
-20 c28 -25 49 -68 41 -80 -14 -21 -50 -26 -197 -29 -141 -4 -191 -8 -240 -22
-14 -4 -8 8 22 38 95 99 109 229 35 314 -63 72 -232 82 -332 20 -98 -62 -140
-143 -135 -262 1 -43 6 -89 9 -103 6 -22 2 -28 -30 -45 -21 -11 -62 -43 -91
-71 l-54 -50 -18 30 c-36 58 -64 112 -213 404 l-150 293 30 27 c27 24 174 159
242 222 85 79 182 163 221 193 105 81 274 154 370 161 37 3 45 7 47 26 2 12 0
20 -5 17 -11 -7 -289 -11 -468 -8 -153 3 -145 4 -145 -14 0 -14 12 -19 33 -16
4 1 23 -5 42 -13 76 -32 64 -109 -30 -201 -32 -31 -228 -214 -344 -321 -36
-32 -94 -87 -130 -120 -94 -88 -145 -133 -148 -130 -2 1 11 76 27 167 17 90
33 180 35 199 3 19 9 58 15 85 5 28 12 65 15 83 22 134 51 204 93 226 25 13
83 25 125 26 19 0 24 29 5 31 -7 1 -56 0 -108 -1 -136 -3 -229 -3 -355 -1
-148 4 -147 4 -143 -16 2 -12 15 -17 46 -19 68 -4 100 -21 111 -60 9 -34 8
-49 -9 -154 -5 -30 -12 -71 -15 -90 -3 -19 -17 -93 -30 -165 -13 -71 -26 -143
-28 -160 -4 -25 -55 -313 -72 -405 -3 -14 -9 -52 -15 -85 -5 -33 -12 -71 -15
-85 -3 -14 -16 -90 -30 -170 -30 -169 -50 -236 -78 -268 -23 -25 -74 -42 -128
-42 -39 0 -50 -6 -43 -23 3 -9 87 -12 307 -11 275 0 302 2 305 17 3 14 -5 17
-37 18 -45 2 -44 1 -83 12 -49 13 -49 50 2 327 16 90 33 185 36 210 3 25 8 47
9 50 2 3 11 50 20 104 17 98 17 99 68 147 29 27 55 49 59 49 6 0 60 -100 236
-440 38 -74 100 -202 138 -285 75 -164 105 -205 153 -205 19 0 43 -11 63 -28
76 -65 135 -86 231 -84 79 2 130 13 208 48 52 22 89 24 89 4 0 -15 90 -52 126
-52 41 0 87 17 129 48 27 20 41 22 160 22 159 -1 260 19 370 72 223 108 353
341 313 563 -23 123 -114 230 -360 420 -150 116 -201 169 -236 245 -53 116
-27 270 63 370 62 69 118 94 205 93 91 -2 149 -28 215 -99 41 -43 99 -157 114
-223 6 -26 15 -59 21 -74 9 -24 13 -26 24 -14 13 13 18 41 32 189 3 30 9 80
14 110 12 82 4 94 -87 124 -43 14 -91 28 -108 32 -58 12 -250 12 -305 0z
m-795 -1010 c12 -18 13 -29 5 -50 -14 -37 -37 -59 -45 -45 -13 21 -9 100 6
110 18 12 16 12 34 -15z m839 -104 c119 -135 136 -307 48 -478 -68 -132 -255
-193 -404 -133 -23 9 -28 18 -28 47 0 28 -8 43 -45 79 l-46 44 -18 -22 c-18
-23 -18 -23 -25 -2 -4 13 3 39 19 71 14 27 25 55 25 61 0 6 1 11 3 11 1 1 20
3 42 6 216 26 358 142 372 304 6 65 10 66 57 12z m-978 -364 c20 -40 52 -97
71 -127 19 -29 32 -55 29 -58 -8 -9 -71 -18 -97 -15 -43 5 -99 61 -106 104 -8
53 4 103 33 138 14 16 28 30 30 30 2 0 20 -33 40 -72z m284 27 c0 -8 -4 -15
-10 -15 -5 0 -10 7 -10 15 0 8 5 15 10 15 6 0 10 -7 10 -15z"/>
</g>
</svg>
